<svg width="20" height="20" fill="none" xmlns="http://www.w3.org/2000/svg"><rect width="20" height="20" rx="10" fill="#1A1B22"/><g fill="#fff"><path d="M9.436 9.277a1.77 1.77 0 0 0 .287-1.006c0-1.005-.861-1.771-1.819-1.771H5.128c-.144 0-.24.096-.24.24v6.079c0 .143.096.24.24.24H8.19c1.15 0 2.107-.91 2.107-2.06 0-.717-.335-1.34-.862-1.723zm-3.35-1.532h1.818c.335 0 .575.287.575.574a.582.582 0 0 1-.575.575H6.085v-1.15zm2.153 4.116H6.085v-1.723H8.24c.48 0 .862.383.862.862a.858.858 0 0 1-.862.861zM15.611 10.569c0-1.436-1.1-2.585-2.489-2.585-1.388 0-2.49 1.149-2.49 2.585s1.102 2.585 2.49 2.585c.814 0 1.58-.43 2.059-1.149l.143-.287c.048-.048 0-.144-.095-.144h-1.197c-.048 0-.048 0-.096.048-.24.24-.527.335-.814.335-.622 0-1.1-.43-1.245-1.053h3.495c.144 0 .24-.096.24-.24v-.095zm-2.489-1.34c.431 0 .814.239 1.053.622H12.07c.191-.383.622-.622 1.053-.622zM14.127 7.697h-2.202a.206.206 0 0 1-.191-.192V6.98c0-.096.096-.192.191-.192h2.202c.096 0 .192.096.192.192v.574c0 .048-.048.144-.192.144z"/></g></svg>