<svg width="24" height="24" fill="none" xmlns="http://www.w3.org/2000/svg"><g clip-path="url(#a)"><path fill-rule="evenodd" clip-rule="evenodd" d="M4.8 1.6a1.6 1.6 0 0 0-1.6 1.6v17.6a1.6 1.6 0 0 0 1.6 1.6h12a.8.8 0 1 0 0-1.6h-12V3.2h12a.8.8 0 1 0 0-1.6h-12zm15.366 6.234a.801.801 0 0 0-1.132 1.132l2.235 2.234H10.4a.8.8 0 0 0 0 1.6h10.869l-2.235 2.234a.8.8 0 1 0 1.132 1.132l3.6-3.6a.8.8 0 0 0 0-1.132l-3.6-3.6z" fill="#fff"/></g><defs><clipPath id="a"><path fill="#fff" d="M0 0h24v24H0z"/></clipPath></defs></svg>