<svg width="20" height="20" fill="none" xmlns="http://www.w3.org/2000/svg"><rect width="20" height="20" rx="10" fill="#1A1B22"/><g clip-path="url(#a)" fill="#fff"><path d="M8.166 15.5A1.834 1.834 0 0 0 10 13.667v-1.833H8.166a1.834 1.834 0 0 0 0 3.666zM6.333 10c0-1.012.821-1.834 1.833-1.834H10v3.667H8.166A1.834 1.834 0 0 1 6.333 10z"/><path d="M6.333 6.333c0-1.012.821-1.833 1.833-1.833H10v3.667H8.166a1.834 1.834 0 0 1-1.833-1.834zM10 4.5h1.833a1.834 1.834 0 0 1 0 3.667H10V4.5z"/><path d="M13.667 10a1.834 1.834 0 1 1-3.668-.001 1.834 1.834 0 0 1 3.668 0z"/></g><defs><clipPath id="a"><path fill="#fff" transform="translate(4.5 4.5)" d="M0 0h11v11H0z"/></clipPath></defs></svg>