<svg width="20" height="20" fill="none" xmlns="http://www.w3.org/2000/svg"><path d="M20 10c0-5.523-4.477-10-10-10S0 4.477 0 10s4.477 10 10 10 10-4.477 10-10z" fill="#1A1B22"/><path fill-rule="evenodd" clip-rule="evenodd" d="M9.985 5.12A4.986 4.986 0 0 0 5 10.105c0 2.202 1.437 4.067 3.395 4.74.244.03.336-.122.336-.245v-.856c-1.376.306-1.682-.673-1.682-.673-.214-.58-.55-.734-.55-.734-.46-.306.03-.306.03-.306.49.031.765.52.765.52.458.765 1.162.55 1.437.428.03-.336.183-.55.306-.672-1.101-.123-2.263-.55-2.263-2.477 0-.55.183-.979.52-1.346-.031-.092-.214-.612.06-1.284 0 0 .429-.123 1.377.52.397-.123.826-.153 1.254-.153.428 0 .856.06 1.254.153.947-.643 1.376-.52 1.376-.52.275.672.091 1.192.06 1.315.307.336.52.795.52 1.345 0 1.927-1.161 2.324-2.262 2.447.183.153.336.458.336.917V14.6c0 .123.092.276.336.245A4.99 4.99 0 0 0 15 10.105c-.03-2.752-2.263-4.985-5.015-4.985z" fill="#fff"/></svg>