<svg width="49" height="49" fill="none" xmlns="http://www.w3.org/2000/svg"><g clip-path="url(#a)" fill="#fff"><path d="M24.62 48.855c13.254 0 24-10.745 24-24 0-13.254-10.746-24-24-24-13.256 0-24 10.746-24 24 0 13.255 10.744 24 24 24z" fill-opacity=".2"/><path d="M35.516 34.292V31.65H13.72v2.642h21.796zM27.731 9.855l-2.288 1.32 10.898 18.877 2.288-1.321L27.731 9.855zM21.505 9.855l2.288 1.32-10.898 18.877-2.288-1.321L21.505 9.855zM38.984 31.613h-2.642v5.284h2.642v-5.284zM12.896 31.613h-2.642v5.284h2.642v-5.284z"/></g><defs><clipPath id="a"><path fill="#fff" d="M0 0h49v49H0z"/></clipPath></defs></svg>