<svg width="24" height="24" fill="none" xmlns="http://www.w3.org/2000/svg"><g clip-path="url(#a)"><path d="M20.67 3.693A11.981 11.981 0 0 0 11.996.001C5.38-.008.008 5.35 0 11.967a11.981 11.981 0 0 0 3.693 8.667c.006.007.009.017.016.023.07.067.145.123.215.188.193.171.385.348.589.514.108.085.221.171.333.25.192.143.384.286.584.418.136.086.277.171.417.257.185.112.369.224.56.326.162.085.327.16.492.237.18.086.357.171.541.249.185.077.37.137.556.203.187.067.348.129.527.184.203.06.41.108.616.158.171.042.337.09.514.125.236.047.476.077.716.11.148.02.293.049.443.064.393.038.788.06 1.188.06.399 0 .795-.022 1.187-.06.15-.015.295-.044.443-.065.24-.032.48-.062.717-.11.171-.034.342-.085.514-.124.205-.05.413-.097.615-.158.18-.055.352-.122.527-.184.175-.061.373-.128.556-.203.182-.076.362-.164.542-.249.164-.078.33-.152.491-.237.192-.102.376-.215.56-.326.14-.085.281-.163.417-.257.2-.132.393-.275.585-.418.111-.086.224-.163.333-.25.203-.163.396-.336.589-.514.07-.065.145-.121.215-.188.006-.006.01-.016.016-.023 4.778-4.578 4.94-12.162.363-16.94zm-1.926 16.044a10 10 0 0 1-.77.61 9.558 9.558 0 0 1-.829.537c-.15.086-.304.171-.459.257a11.7 11.7 0 0 1-.865.397c-.151.06-.312.118-.47.171-.146.05-.29.101-.437.145-.171.051-.35.093-.528.136-.139.033-.276.07-.416.097-.203.04-.41.067-.619.095-.118.016-.236.037-.355.05-.329.03-.662.05-.999.05-.336 0-.67-.02-.999-.05-.119-.013-.236-.034-.355-.05-.208-.028-.415-.055-.618-.095-.14-.027-.278-.064-.417-.097a11.907 11.907 0 0 1-.528-.136c-.146-.044-.29-.095-.436-.145-.158-.055-.317-.11-.471-.171-.154-.061-.3-.128-.447-.195a7.846 7.846 0 0 1-.877-.458 10.776 10.776 0 0 1-.828-.538 10.101 10.101 0 0 1-.77-.61c-.038-.029-.073-.065-.11-.097a6.874 6.874 0 0 1 4.673-6.422 5.08 5.08 0 0 0 4.365 0 6.875 6.875 0 0 1 4.672 6.422c-.036.032-.07.065-.107.097zM9.008 6.87a3.427 3.427 0 1 1 4.668 4.667c-.004 0-.01 0-.015.005a3.632 3.632 0 0 1-.716.304c-.045.013-.086.03-.133.04-.086.023-.176.038-.264.054a3.478 3.478 0 0 1-.503.05h-.098a3.48 3.48 0 0 1-.502-.05c-.086-.016-.177-.03-.264-.053-.046-.011-.086-.028-.133-.041a3.624 3.624 0 0 1-.716-.304l-.016-.005a3.427 3.427 0 0 1-1.308-4.667zm11.363 11.07a8.611 8.611 0 0 0-4.587-5.907 5.141 5.141 0 1 0-7.575 0 8.611 8.611 0 0 0-4.588 5.907C.336 13.313 1.424 6.897 6.052 3.61 10.68.326 17.096 1.414 20.382 6.042a10.277 10.277 0 0 1 1.897 5.955c0 2.132-.667 4.21-1.908 5.944z" fill="#fff"/></g><defs><clipPath id="a"><path fill="#fff" d="M0 0h24v24H0z"/></clipPath></defs></svg>