<svg
            xmlns="http://www.w3.org/2000/svg"
            width="24"
            height="24"
            viewBox="0 0 24 24"
            fill="none"
          >
            <path
              d="M12.7396 4.75195C12.7396 4.33774 12.4043 4.00195 11.9906 4.00195C11.577 4.00195 11.2417 4.33774 11.2417 4.75195V7.25195C11.2417 7.66617 11.577 8.00195 11.9906 8.00195C12.4043 8.00195 12.7396 7.66617 12.7396 7.25195V4.75195ZM11.9907 17.9985C14.1967 17.9985 15.985 16.2077 15.985 13.9985C15.985 13.3958 15.8518 12.8241 15.6134 12.3115C16.5335 12.7106 17.3769 13.2169 18.1093 13.7352C18.9108 14.3023 19.5605 14.8704 20.0089 15.2959C20.2328 15.5083 20.4055 15.6843 20.5208 15.8056C20.5785 15.8662 20.6217 15.913 20.6498 15.9439L20.6803 15.9778L20.6869 15.9852L20.6878 15.9862C20.9603 16.2976 21.4332 16.329 21.7443 16.0562C22.0556 15.7834 22.087 15.3096 21.8146 14.9979L21.2511 15.4919C21.8146 14.9979 21.8148 14.9981 21.8146 14.9979L21.8127 14.9957L21.8092 14.9918L21.7977 14.9788C21.7881 14.968 21.7744 14.9528 21.7568 14.9335C21.7217 14.8949 21.671 14.84 21.6054 14.771C21.4743 14.6332 21.2835 14.4389 21.0392 14.2071C20.5514 13.7442 19.8463 13.1276 18.9737 12.5101C17.2957 11.3228 14.926 10.0809 12.251 10.0069C12.165 10.0014 12.0782 9.99854 11.9907 9.99854C11.8981 9.99854 11.8063 10.0017 11.7154 10.0079C9.05422 10.0913 6.69728 11.3278 5.02633 12.5101C4.1537 13.1276 3.4486 13.7442 2.9608 14.2071C2.71652 14.4389 2.52571 14.6332 2.39458 14.771C2.32899 14.84 2.27826 14.8949 2.24316 14.9335C2.2256 14.9528 2.21195 14.968 2.20229 14.9788L2.19082 14.9918L2.18735 14.9957L2.18619 14.997C2.18601 14.9972 2.18541 14.9979 2.74894 15.4919L2.18541 14.9979C1.91298 15.3096 1.94443 15.7834 2.25566 16.0562C2.56679 16.329 3.03975 16.2976 3.31222 15.9862L3.3131 15.9852L3.31965 15.9778L3.35024 15.9439C3.3783 15.913 3.42154 15.8662 3.47919 15.8056C3.59453 15.6843 3.76722 15.5083 3.99106 15.2959C4.43952 14.8704 5.08921 14.3023 5.89069 13.7352C6.6169 13.2213 7.45224 12.7191 8.36329 12.3217C8.1278 12.8317 7.99641 13.3997 7.99641 13.9985C7.99641 16.2077 9.78471 17.9985 11.9907 17.9985ZM11.9999 15.4985C11.1727 15.4985 10.5021 14.827 10.5021 13.9985C10.5021 13.1701 11.1727 12.4985 11.9999 12.4985C12.8272 12.4985 13.4978 13.1701 13.4978 13.9985C13.4978 14.827 12.8272 15.4985 11.9999 15.4985ZM19.3286 5.08475C19.6989 5.26912 19.8499 5.71928 19.6658 6.09019L18.4058 8.62861C18.2217 8.99952 17.7722 9.15074 17.4018 8.96637C17.0314 8.78199 16.8804 8.33184 17.0645 7.96092L18.3246 5.4225C18.5087 5.05159 18.9582 4.90037 19.3286 5.08475ZM4.0836 6.09019C3.89949 5.71928 4.05049 5.26912 4.42087 5.08475C4.79126 4.90037 5.24076 5.05159 5.42488 5.4225L6.68488 7.96092C6.869 8.33184 6.718 8.78199 6.34761 8.96637C5.97723 9.15074 5.52772 8.99953 5.34361 8.62861L4.0836 6.09019Z"
              fill="#B5B5B7"
            />
          </svg>